This is the league match between India and South africa in 2007 T20World Cup. 

Hope you'll like it.

Screenshots:
 
http://imageshack.us/f/100/vlcsnap2012092114h28m57.png/ 
http://imageshack.us/f/42/vlcsnap2012092114h27m26.png/ 
http://imageshack.us/f/443/vlcsnap2012092114h28m03.png/ 
http://imageshack.us/f/829/vlcsnap2012092114h28m23.png/


General:

Complete name : India vs SouthAfrica.VOB
Format : MPEG-PS
File size : 372 MiB
Duration : 20mn 14s
Overall bit rate : 2 569 Kbps

Video:

ID : 224 (0xE0)
Format : MPEG Video
Format version : Version 2
Format profile : Main@Main
Format settings, BVOP : Yes
Format settings, Matrix : Default
Format settings, GOP : M=3, N=15
Duration : 20mn 14s
Bit rate mode : Variable
Bit rate : 2 326 Kbps
Nominal bit rate : 9 641 Kbps
Width : 704 pixels
Height : 480 pixels
Display aspect ratio : 4:3
Frame rate : 29.970 fps
Standard : NTSC
Color space : YUV
Chroma subsampling : 4:2:0
Bit depth : 8 bits
Scan type : Progressive
Scan order : Bottom Field First
Compression mode : Lossy
Bits/(Pixel*Frame) : 0.230
Stream size : 337 MiB (91%)

Audio:

ID : 189 (0xBD)-128 (0x80)
Format : AC-3
Format/Info : Audio Coding 3
Mode extension : CM (complete main)
Muxing mode : DVD-Video
Duration : 20mn 14s
Bit rate mode : Constant
Bit rate : 192 Kbps
Channel(s) : 2 channels
Channel positions : Front: L R
Sampling rate : 48.0 KHz
Bit depth : 16 bits
Compression mode : Lossy
Delay relative to video : -410ms
Stream size : 27.8 MiB (7%)